<svg width="79" height="56" viewBox="0 0 79 56" fill="none" xmlns="http://www.w3.org/2000/svg">
<path d="M68.3601 28.6952C67.5684 28.6952 66.8794 28.2069 66.5721 27.4882C65.9389 26.007 65.1061 24.6338 64.1135 23.3993V12.8289C64.1135 11.81 63.2986 10.984 62.2935 10.984C62.1086 10.984 60.4297 11.0118 58.4626 11.9712C57.8094 12.29 57.0772 12.7377 56.3483 13.3611V11.8449C56.3483 10.826 55.5335 10 54.5284 10C54.3057 10 49.6958 10.0585 46.7272 14.4482C42.8144 11.763 37.4038 12.7607 34.7166 16.8877H33.3368C24.2247 16.8877 16.7171 23.9138 15.8991 32.8549C12.2309 33.697 10 36.4361 10 40.3797C10 41.3986 10.8149 42.2246 11.82 42.2246C12.8251 42.2246 13.6399 41.3986 13.6399 40.3797C13.6399 38.5778 14.2879 37.3287 15.9621 36.6801C16.4883 40.8959 18.51 44.8103 21.6894 47.658C23.4598 49.2453 24.5597 51.4876 24.5597 54.1551C24.5597 55.174 25.3745 56 26.3796 56H34.1448C35.1499 56 35.9648 55.174 35.9648 54.1551C35.9648 52.9986 36.8865 52.0642 38.0274 52.0642H45.7926C46.9299 52.0642 47.8552 53.0021 47.8552 54.1551C47.8552 55.174 48.67 56 49.6751 56H57.4403C58.4454 56 59.2603 55.174 59.2603 54.1551V49.7465C62.9078 47.6316 65.6647 44.2645 67.0375 40.2567H68.3601C70.3671 40.2567 72 38.6014 72 36.5668V32.385C72 30.3504 70.3671 28.6952 68.3601 28.6952ZM60.4736 15.1028V19.9926C59.4265 19.2599 58.3001 18.6417 57.1139 18.156C58.0847 16.4069 59.4056 15.5362 60.4736 15.1028ZM41.91 16.6417C44.6529 16.6417 46.8845 18.904 46.8845 21.6845C46.8845 24.465 44.6529 26.7273 41.91 26.7273C39.1671 26.7273 36.9354 24.465 36.9354 21.6845C36.9354 18.904 39.1671 16.6417 41.91 16.6417ZM68.3601 36.5668H65.6872C64.8568 36.5668 64.1318 37.1366 63.9247 37.9518C62.9226 41.8967 60.2685 45.1866 56.6429 46.978C56.0173 47.2871 55.6204 47.9308 55.6204 48.6363V52.3102H51.1974C50.4363 50.0244 48.301 48.3743 45.7926 48.3743H38.0274C35.4661 48.3743 33.3614 50.0687 32.6198 52.3102H28.0792C27.6762 49.4812 26.2755 46.8438 24.1001 44.8936C21.1537 42.2544 19.4638 38.4578 19.4638 34.4772C19.4638 26.872 25.6156 20.5775 33.3671 20.5775C33.0858 22.8203 33.6614 24.9826 34.8836 26.7273H33.1742C32.1691 26.7273 31.3542 27.5533 31.3542 28.5722C31.3542 29.5911 32.1691 30.4171 33.1742 30.4171H50.6458C51.6509 30.4171 52.4658 29.5911 52.4658 28.5722C52.4658 27.5533 51.6509 26.7273 50.6458 26.7273H48.9364C50.9349 23.8742 51.0331 20.1514 49.3144 17.2281C50.2858 15.4403 51.6266 14.5554 52.7085 14.1179V19.2307C52.7085 20.0728 53.271 20.8079 54.0754 21.0175C58.1369 22.0757 61.5601 25.0431 63.2324 28.9552C64.1066 31.0004 66.0926 32.385 68.3601 32.385V36.5668Z" fill="#512771"/>
<path d="M57.4406 26.7274C56.4355 26.7274 55.6206 27.5534 55.6206 28.5723V30.5403C55.6206 31.5591 56.4355 32.3852 57.4406 32.3852C58.4457 32.3852 59.2605 31.5591 59.2605 30.5403V28.5723C59.2605 27.5534 58.4457 26.7274 57.4406 26.7274Z" fill="#512771"/>
<path fill-rule="evenodd" clip-rule="evenodd" d="M14.8288 4.82824C14.5164 5.14066 14.5164 5.64719 14.8288 5.95961L16.5259 7.65672L14.8287 9.35394C14.5163 9.66636 14.5163 10.1729 14.8287 10.4853C15.1411 10.7977 15.6477 10.7977 15.9601 10.4853L17.6573 8.78809L19.3543 10.4851C19.6667 10.7975 20.1732 10.7975 20.4857 10.4851C20.7981 10.1727 20.7981 9.66615 20.4857 9.35373L18.7887 7.65672L20.4856 5.95982C20.798 5.6474 20.798 5.14087 20.4856 4.82845C20.1731 4.51603 19.6666 4.51603 19.3542 4.82845L17.6573 6.52535L15.9602 4.82824C15.6478 4.51582 15.1412 4.51582 14.8288 4.82824Z" fill="black"/>
<path fill-rule="evenodd" clip-rule="evenodd" d="M73.7677 17.8891C73.5725 18.0844 73.5725 18.401 73.7677 18.5962L74.8284 19.6569L73.7678 20.7174C73.5726 20.9127 73.5726 21.2293 73.7678 21.4245C73.9631 21.6198 74.2797 21.6198 74.4749 21.4245L75.5355 20.364L76.5961 21.4247C76.7914 21.6199 77.108 21.6199 77.3033 21.4247C77.4985 21.2294 77.4985 20.9128 77.3033 20.7175L76.2426 19.6569L77.3034 18.5961C77.4986 18.4009 77.4986 18.0843 77.3034 17.889C77.1081 17.6937 76.7915 17.6937 76.5963 17.889L75.5355 18.9498L74.4748 17.8891C74.2796 17.6939 73.963 17.6939 73.7677 17.8891Z" fill="black"/>
<path fill-rule="evenodd" clip-rule="evenodd" d="M7.8538 48.657C7.53859 48.657 7.28307 48.9125 7.28307 49.2277V50.9398L5.57073 50.9398C5.25552 50.9398 5 51.1954 5 51.5106C5 51.8258 5.25552 52.0813 5.57073 52.0813H7.28307V53.7935C7.28307 54.1087 7.53859 54.3642 7.8538 54.3642C8.169 54.3642 8.42452 54.1087 8.42452 53.7935V52.0813H10.1365C10.4517 52.0813 10.7073 51.8258 10.7073 51.5106C10.7073 51.1954 10.4517 50.9398 10.1365 50.9398L8.42452 50.9398V49.2277C8.42452 48.9125 8.169 48.657 7.8538 48.657Z" fill="black"/>
<circle cx="1.5" cy="26.157" r="1.5" fill="black"/>
<circle cx="75.5" cy="49.157" r="1.5" fill="black"/>
</svg>
