<svg width="24" height="24" viewBox="0 0 24 24" fill="none" xmlns="http://www.w3.org/2000/svg">
<path d="M15.55 12.9999C16.3 12.9999 16.96 12.5899 17.3 11.9699L20.88 5.47991C21.25 4.81991 20.77 3.99991 20.01 3.99991H5.21L4.27 1.99991H1V3.99991H3L6.6 11.5899L5.25 14.0299C4.52 15.3699 5.48 16.9999 7 16.9999H19V14.9999H7L8.1 12.9999H15.55ZM6.16 5.99991H18.31L15.55 10.9999H8.53L6.16 5.99991ZM7 17.9999C5.9 17.9999 5.01 18.8999 5.01 19.9999C5.01 21.0999 5.9 21.9999 7 21.9999C8.1 21.9999 9 21.0999 9 19.9999C9 18.8999 8.1 17.9999 7 17.9999ZM17 17.9999C15.9 17.9999 15.01 18.8999 15.01 19.9999C15.01 21.0999 15.9 21.9999 17 21.9999C18.1 21.9999 19 21.0999 19 19.9999C19 18.8999 18.1 17.9999 17 17.9999Z" fill="#BDBDBD"/>
</svg>
