<svg width="32" height="32" viewBox="0 0 32 32" fill="none" xmlns="http://www.w3.org/2000/svg">
<path d="M22.6666 9.33333H17.3333V12H22.6666C24.8666 12 26.6666 13.8 26.6666 16C26.6666 18.2 24.8666 20 22.6666 20H17.3333V22.6667H22.6666C26.3466 22.6667 29.3333 19.68 29.3333 16C29.3333 12.32 26.3466 9.33333 22.6666 9.33333ZM14.6666 20H9.33329C7.13329 20 5.33329 18.2 5.33329 16C5.33329 13.8 7.13329 12 9.33329 12H14.6666V9.33333H9.33329C5.65329 9.33333 2.66663 12.32 2.66663 16C2.66663 19.68 5.65329 22.6667 9.33329 22.6667H14.6666V20ZM10.6666 14.6667H21.3333V17.3333H10.6666V14.6667Z" fill="
#512771"/>
</svg>
