<svg width="96" height="96" viewBox="0 0 96 96" fill="none" xmlns="http://www.w3.org/2000/svg">
<path d="M48 7.99969C25.92 7.99969 8 25.9197 8 47.9997C8 70.0797 25.92 87.9997 48 87.9997C70.08 87.9997 88 70.0797 88 47.9997C88 25.9197 70.08 7.99969 48 7.99969ZM48 19.9997C54.64 19.9997 60 25.3597 60 31.9997C60 38.6397 54.64 43.9997 48 43.9997C41.36 43.9997 36 38.6397 36 31.9997C36 25.3597 41.36 19.9997 48 19.9997ZM48 76.7997C38 76.7997 29.16 71.6797 24 63.9197C24.12 55.9597 40 51.5997 48 51.5997C55.96 51.5997 71.88 55.9597 72 63.9197C66.84 71.6797 58 76.7997 48 76.7997Z" fill="#512771"/>
</svg>
